<svg xmlns="http://www.w3.org/2000/svg" xmlns:xlink="http://www.w3.org/1999/xlink" style="margin:auto;background:#ffffff;display:block;z-index:1;position:relative" width="1920" height="1080" preserveAspectRatio="xMidYMid" viewBox="0 0 1920 1080">
<g transform=""><path id="path0" d="M 929.9420068610688 798.6346498900058
c 0 35.86055249844897 -8.77439050493964 10.300371462320449 -19.07476196726009 10.300371462320449
S 891.7924829265486 834.4952023884548 891.7924829265486 798.6346498900058
s 8.77439050493964 -10.300371462320449 19.07476196726009 -10.300371462320449
S 929.9420068610688 762.7740973915568 929.9420068610688 798.6346498900058
z" fill="none" stroke="none"></path>
<circle cx="0" cy="0" r="5.738127794940837" fill="#51cacc">
  <animateMotion begin="-11.344115784251423s" dur="13s" repeatCount="indefinite">
    <mpath xlink:href="#path0"></mpath>
  </animateMotion>
</circle><path id="path1" d="M 218.218477102947 857.4619393300927
c 0 29.786882095470443 -7.28827966165766 8.555806559337254 -15.844086220994916 8.555806559337254
S 186.53030466095717 887.2488214255632 186.53030466095717 857.4619393300927
s 7.28827966165766 -8.555806559337254 15.844086220994916 -8.555806559337254
S 218.218477102947 827.6750572346223 218.218477102947 857.4619393300927
z" fill="none" stroke="none"></path>
<circle cx="0" cy="0" r="5.872613591007346" fill="#e0ff77">
  <animateMotion begin="-2.5750003429674417s" dur="13s" repeatCount="indefinite">
    <mpath xlink:href="#path1"></mpath>
  </animateMotion>
</circle><path id="path2" d="M 1290.2019485316184 981.5302389622921
c 0 19.64965855876411 -4.807895179272069 5.644050862623734 -10.451946041895804 5.644050862623734
S 1269.2980564478269 1001.1798975210562 1269.2980564478269 981.5302389622921
s 4.807895179272069 -5.644050862623734 10.451946041895804 -5.644050862623734
S 1290.2019485316184 961.8805804035279 1290.2019485316184 981.5302389622921
z" fill="none" stroke="none"></path>
<circle cx="0" cy="0" r="7.209970915225593" fill="#e0ff77">
  <animateMotion begin="-4.421103979826226s" dur="13s" repeatCount="indefinite">
    <mpath xlink:href="#path2"></mpath>
  </animateMotion>
</circle><path id="path3" d="M 379.6758087814335 238.15555123908223
c 0 20.493452118941647 -5.014355305698487 5.886417097993878 -10.900772403692365 5.886417097993878
S 357.87426397404874 258.6490033580239 357.87426397404874 238.15555123908223
s 5.014355305698487 -5.886417097993878 10.900772403692365 -5.886417097993878
S 379.6758087814335 217.66209912014057 379.6758087814335 238.15555123908223
z" fill="none" stroke="none"></path>
<circle cx="0" cy="0" r="6.903159549929618" fill="#de9dd6">
  <animateMotion begin="-1.431974694749152s" dur="13s" repeatCount="indefinite">
    <mpath xlink:href="#path3"></mpath>
  </animateMotion>
</circle><path id="path4" d="M 157.81080166856225 426.1509875924807
c 0 27.45393677415308 -6.717452614952349 7.885705243639715 -14.603157858592064 7.885705243639715
S 128.60448595137814 453.6049243666338 128.60448595137814 426.1509875924807
s 6.717452614952349 -7.885705243639715 14.603157858592064 -7.885705243639715
S 157.81080166856225 398.6970508183276 157.81080166856225 426.1509875924807
z" fill="none" stroke="none"></path>
<circle cx="0" cy="0" r="4.4736214086056885" fill="#ff708e">
  <animateMotion begin="-1.110214358906076s" dur="13s" repeatCount="indefinite">
    <mpath xlink:href="#path4"></mpath>
  </animateMotion>
</circle><path id="path5" d="M 285.4815219610053 655.6274581357471
c 0 28.57106676337912 -6.990792931465103 8.206583006502514 -15.197375937967617 8.206583006502514
S 255.08677008507007 684.1985248991263 255.08677008507007 655.6274581357471
s 6.990792931465103 -8.206583006502514 15.197375937967617 -8.206583006502514
S 285.4815219610053 627.056391372368 285.4815219610053 655.6274581357471
z" fill="none" stroke="none"></path>
<circle cx="0" cy="0" r="7.829583950597744" fill="#de9dd6">
  <animateMotion begin="-12.50402784327294s" dur="13s" repeatCount="indefinite">
    <mpath xlink:href="#path5"></mpath>
  </animateMotion>
</circle><path id="path6" d="M 224.4461933276237 44.80512500994807
c 0 23.348616883089548 -5.712959450117655 6.706517615355509 -12.419477065473163 6.706517615355509
S 199.60723919667737 68.15374189303762 199.60723919667737 44.80512500994807
s 5.712959450117655 -6.706517615355509 12.419477065473163 -6.706517615355509
S 224.4461933276237 21.456508126858523 224.4461933276237 44.80512500994807
z" fill="none" stroke="none"></path>
<circle cx="0" cy="0" r="6.536866026172399" fill="#9df871">
  <animateMotion begin="-2.221260058356339s" dur="13s" repeatCount="indefinite">
    <mpath xlink:href="#path6"></mpath>
  </animateMotion>
</circle><path id="path7" d="M 237.8488837958761 284.5473736696616
c 0 33.75076475663485 -8.258165844708525 9.69436860031001 -17.952534445018536 9.69436860031001
S 201.94381490583905 318.2981384262965 201.94381490583905 284.5473736696616
s 8.258165844708525 -9.69436860031001 17.952534445018536 -9.69436860031001
S 237.8488837958761 250.79660891302677 237.8488837958761 284.5473736696616
z" fill="none" stroke="none"></path>
<circle cx="0" cy="0" r="6.392800710528805" fill="#e0ff77">
  <animateMotion begin="-2.119694838189498s" dur="13s" repeatCount="indefinite">
    <mpath xlink:href="#path7"></mpath>
  </animateMotion>
</circle><path id="path8" d="M 1547.0603527290953 297.078880973565
c 0 35.16679264679114 -8.604640754002086 10.101100015567669 -18.705740769569754 10.101100015567669
S 1509.6488711899558 332.2456736203561 1509.6488711899558 297.078880973565
s 8.604640754002086 -10.101100015567669 18.705740769569754 -10.101100015567669
S 1547.0603527290953 261.91208832677387 1547.0603527290953 297.078880973565
z" fill="none" stroke="none"></path>
<circle cx="0" cy="0" r="4.456006352996308" fill="#51cacc">
  <animateMotion begin="-5.570833754233675s" dur="13s" repeatCount="indefinite">
    <mpath xlink:href="#path8"></mpath>
  </animateMotion>
</circle><path id="path9" d="M 1631.8765765942128 884.9825070555607
c 0 29.73886636942226 -7.276531132943744 8.54201480823831 -15.818545941182053 8.54201480823831
S 1600.2394847118487 914.721373424983 1600.2394847118487 884.9825070555607
s 7.276531132943744 -8.54201480823831 15.818545941182053 -8.54201480823831
S 1631.8765765942128 855.2436406861385 1631.8765765942128 884.9825070555607
z" fill="none" stroke="none"></path>
<circle cx="0" cy="0" r="6.5344694917186725" fill="#ff708e">
  <animateMotion begin="-5.70753708249795s" dur="13s" repeatCount="indefinite">
    <mpath xlink:href="#path9"></mpath>
  </animateMotion>
</circle><path id="path10" d="M 1374.0148500319597 891.1827441179419
c 0 35.83947687228811 -8.7692337027939 10.294317825018926 -19.063551527812827 10.294317825018926
S 1335.8877469763338 927.0222209902299 1335.8877469763338 891.1827441179419
s 8.7692337027939 -10.294317825018926 19.063551527812827 -10.294317825018926
S 1374.0148500319597 855.3432672456538 1374.0148500319597 891.1827441179419
z" fill="none" stroke="none"></path>
<circle cx="0" cy="0" r="6.830276847812984" fill="#e0ff77">
  <animateMotion begin="-7.204933764645028s" dur="13s" repeatCount="indefinite">
    <mpath xlink:href="#path10"></mpath>
  </animateMotion>
</circle><path id="path11" d="M 1914.157599546399 158.38675943214028
c 0 25.51681975998021 -6.243477175314306 7.329299292760273 -13.57277646807458 7.329299292760273
S 1887.0120466102499 183.9035791921205 1887.0120466102499 158.38675943214028
s 6.243477175314306 -7.329299292760273 13.57277646807458 -7.329299292760273
S 1914.157599546399 132.86993967216006 1914.157599546399 158.38675943214028
z" fill="none" stroke="none"></path>
<circle cx="0" cy="0" r="5.8190344924509825" fill="#de9dd6">
  <animateMotion begin="-9.447389710986272s" dur="13s" repeatCount="indefinite">
    <mpath xlink:href="#path11"></mpath>
  </animateMotion>
</circle><path id="path12" d="M 877.0601132096452 506.17568859280567
c 0 32.102973379144295 -7.854982848088498 9.221066821669107 -17.076049669757605 9.221066821669107
S 842.90801387013 538.27866197195 842.90801387013 506.17568859280567
s 7.854982848088498 -9.221066821669107 17.076049669757605 -9.221066821669107
S 877.0601132096452 474.07271521366135 877.0601132096452 506.17568859280567
z" fill="none" stroke="none"></path>
<circle cx="0" cy="0" r="6.7752667232204615" fill="#ff708e">
  <animateMotion begin="-10.445243143367668s" dur="13s" repeatCount="indefinite">
    <mpath xlink:href="#path12"></mpath>
  </animateMotion>
</circle><path id="path13" d="M 766.555599335007 664.3123683944477
c 0 26.54307713962129 -6.494582704375421 7.624075348614626 -14.118658052990048 7.624075348614626
S 738.3182832290267 690.8554455340691 738.3182832290267 664.3123683944477
s 6.494582704375421 -7.624075348614626 14.118658052990048 -7.624075348614626
S 766.555599335007 637.7692912548264 766.555599335007 664.3123683944477
z" fill="none" stroke="none"></path>
<circle cx="0" cy="0" r="6.803632191258224" fill="#9df871">
  <animateMotion begin="-11.640662606043314s" dur="13s" repeatCount="indefinite">
    <mpath xlink:href="#path13"></mpath>
  </animateMotion>
</circle><path id="path14" d="M 1641.7257992151146 825.7977371485936
c 0 34.13459298361306 -8.352081261947875 9.804617133590986 -18.15669839553886 9.804617133590986
S 1605.412402424037 859.9323301322066 1605.412402424037 825.7977371485936
s 8.352081261947875 -9.804617133590986 18.15669839553886 -9.804617133590986
S 1641.7257992151146 791.6631441649805 1641.7257992151146 825.7977371485936
z" fill="none" stroke="none"></path>
<circle cx="0" cy="0" r="7.549107060125332" fill="#9df871">
  <animateMotion begin="-2.9224992790609203s" dur="13s" repeatCount="indefinite">
    <mpath xlink:href="#path14"></mpath>
  </animateMotion>
</circle><path id="path15" d="M 185.7963038941237 168.66033815146204
c 0 36.51658050049329 -8.93490799480155 10.488805037375734 -19.423713032177282 10.488805037375734
S 146.94887782976912 205.17691865195533 146.94887782976912 168.66033815146204
s 8.93490799480155 -10.488805037375734 19.423713032177282 -10.488805037375734
S 185.7963038941237 132.14375765096875 185.7963038941237 168.66033815146204
z" fill="none" stroke="none"></path>
<circle cx="0" cy="0" r="7.527115132382603" fill="#51cacc">
  <animateMotion begin="-6.59095419028535s" dur="13s" repeatCount="indefinite">
    <mpath xlink:href="#path15"></mpath>
  </animateMotion>
</circle><path id="path16" d="M 1926.4833629711927 714.8598005726881
c 0 37.094449819045344 -9.076301551468541 10.654788777810898 -19.73109032927944 10.654788777810898
S 1887.021182312634 751.9542503917335 1887.021182312634 714.8598005726881
s 9.076301551468541 -10.654788777810898 19.73109032927944 -10.654788777810898
S 1926.4833629711927 677.7653507536427 1926.4833629711927 714.8598005726881
z" fill="none" stroke="none"></path>
<circle cx="0" cy="0" r="6.117206897692242" fill="#ff708e">
  <animateMotion begin="-1.878149127303412s" dur="13s" repeatCount="indefinite">
    <mpath xlink:href="#path16"></mpath>
  </animateMotion>
</circle><path id="path17" d="M 418.1669550538495 226.86609295147971
c 0 31.379223108704576 -7.6778950159596295 9.01318110569174 -16.69107612165137 9.01318110569174
S 384.7848028105468 258.2453160601843 384.7848028105468 226.86609295147971
s 7.6778950159596295 -9.01318110569174 16.69107612165137 -9.01318110569174
S 418.1669550538495 195.48686984277515 418.1669550538495 226.86609295147971
z" fill="none" stroke="none"></path>
<circle cx="0" cy="0" r="6.09979165397364" fill="#9df871">
  <animateMotion begin="-7.791389435174679s" dur="13s" repeatCount="indefinite">
    <mpath xlink:href="#path17"></mpath>
  </animateMotion>
</circle><path id="path18" d="M 1630.6040075947888 998.2198953957011
c 0 19.189211571800858 -4.695232618632124 5.511794813176842 -10.207027431808966 5.511794813176842
S 1610.189952731171 1017.409106967502 1610.189952731171 998.2198953957011
s 4.695232618632124 -5.511794813176842 10.207027431808966 -5.511794813176842
S 1630.6040075947888 979.0306838239002 1630.6040075947888 998.2198953957011
z" fill="none" stroke="none"></path>
<circle cx="0" cy="0" r="8.3760415751495" fill="#9df871">
  <animateMotion begin="-6.440633734832118s" dur="13s" repeatCount="indefinite">
    <mpath xlink:href="#path18"></mpath>
  </animateMotion>
</circle><path id="path19" d="M 1071.2997728346133 932.9794899545869
c 0 35.813294453818635 -8.762827366359877 10.286797343118119 -19.049624709477996 10.286797343118119
S 1033.2005234156575 968.7927844084056 1033.2005234156575 932.9794899545869
s 8.762827366359877 -10.286797343118119 19.049624709477996 -10.286797343118119
S 1071.2997728346133 897.1661955007683 1071.2997728346133 932.9794899545869
z" fill="none" stroke="none"></path>
<circle cx="0" cy="0" r="6.042224067789559" fill="#e0ff77">
  <animateMotion begin="-12.847001775422095s" dur="13s" repeatCount="indefinite">
    <mpath xlink:href="#path19"></mpath>
  </animateMotion>
</circle><path id="path20" d="M 1912.4179581014444 693.894577203265
c 0 20.18618705630938 -4.9391734286714435 5.798160111918651 -10.737333540590095 5.798160111918651
S 1890.9432910202643 714.0807642595744 1890.9432910202643 693.894577203265
s 4.9391734286714435 -5.798160111918651 10.737333540590095 -5.798160111918651
S 1912.4179581014444 673.7083901469557 1912.4179581014444 693.894577203265
z" fill="none" stroke="none"></path>
<circle cx="0" cy="0" r="5.485643969230609" fill="#ff708e">
  <animateMotion begin="-10.660918960597245s" dur="13s" repeatCount="indefinite">
    <mpath xlink:href="#path20"></mpath>
  </animateMotion>
</circle><path id="path21" d="M 1830.7675075208201 607.4972151994334
c 0 29.190766767583924 -7.142421655898193 8.38458194388049 -15.52700359977868 8.38458194388049
S 1799.7135003212627 636.6879819670173 1799.7135003212627 607.4972151994334
s 7.142421655898193 -8.38458194388049 15.52700359977868 -8.38458194388049
S 1830.7675075208201 578.3064484318495 1830.7675075208201 607.4972151994334
z" fill="none" stroke="none"></path>
<circle cx="0" cy="0" r="6.677961020549592" fill="#9df871">
  <animateMotion begin="-1.4588118096611036s" dur="13s" repeatCount="indefinite">
    <mpath xlink:href="#path21"></mpath>
  </animateMotion>
</circle><path id="path22" d="M 1478.8213416995122 427.70915712359147
c 0 29.598830071542427 -7.242266932398677 8.501791616294101 -15.744058548692779 8.501791616294101
S 1447.3332246021268 457.3079871951339 1447.3332246021268 427.70915712359147
s 7.242266932398677 -8.501791616294101 15.744058548692779 -8.501791616294101
S 1478.8213416995122 398.11032705204906 1478.8213416995122 427.70915712359147
z" fill="none" stroke="none"></path>
<circle cx="0" cy="0" r="7.441286349964025" fill="#e0ff77">
  <animateMotion begin="-1.4545705864329732s" dur="13s" repeatCount="indefinite">
    <mpath xlink:href="#path22"></mpath>
  </animateMotion>
</circle><path id="path23" d="M 1824.2723383721484 871.4966037154769
c 0 34.20262388202078 -8.368727120068913 9.82415792355916 -18.192885043628074 9.82415792355916
S 1787.886568284892 905.6992275974977 1787.886568284892 871.4966037154769
s 8.368727120068913 -9.82415792355916 18.192885043628074 -9.82415792355916
S 1824.2723383721484 837.2939798334561 1824.2723383721484 871.4966037154769
z" fill="none" stroke="none"></path>
<circle cx="0" cy="0" r="7.945987796966378" fill="#9df871">
  <animateMotion begin="-7.742410594636381s" dur="13s" repeatCount="indefinite">
    <mpath xlink:href="#path23"></mpath>
  </animateMotion>
</circle><path id="path24" d="M 1039.3825810051753 5.957246133613659
c 0 34.855167184679935 -8.528391970719559 10.01159057432296 -18.53998254504252 10.01159057432296
S 1002.3026159150903 40.81241331829359 1002.3026159150903 5.957246133613659
s 8.528391970719559 -10.01159057432296 18.53998254504252 -10.01159057432296
S 1039.3825810051753 -28.897921051066277 1039.3825810051753 5.957246133613659
z" fill="none" stroke="none"></path>
<circle cx="0" cy="0" r="4.475080447060023" fill="#9df871">
  <animateMotion begin="-0.6174591445736675s" dur="13s" repeatCount="indefinite">
    <mpath xlink:href="#path24"></mpath>
  </animateMotion>
</circle><path id="path25" d="M 1542.965184886529 283.46410929428527
c 0 23.77688131183342 -5.81774755502307 6.829529738505344 -12.647277293528415 6.829529738505344
S 1517.6706302994724 307.24099060611866 1517.6706302994724 283.46410929428527
s 5.81774755502307 -6.829529738505344 12.647277293528415 -6.829529738505344
S 1542.965184886529 259.6872279824519 1542.965184886529 283.46410929428527
z" fill="none" stroke="none"></path>
<circle cx="0" cy="0" r="6.175748779804143" fill="#e0ff77">
  <animateMotion begin="-11.932157764508043s" dur="13s" repeatCount="indefinite">
    <mpath xlink:href="#path25"></mpath>
  </animateMotion>
</circle><path id="path26" d="M 1362.0535231053575 881.4309104746383
c 0 24.69957956090794 -6.043514147881729 7.09456008664377 -13.138074234525499 7.09456008664377
S 1335.7773746363066 906.1304900355462 1335.7773746363066 881.4309104746383
s 6.043514147881729 -7.09456008664377 13.138074234525499 -7.09456008664377
S 1362.0535231053575 856.7313309137303 1362.0535231053575 881.4309104746383
z" fill="none" stroke="none"></path>
<circle cx="0" cy="0" r="8.240809953579845" fill="#51cacc">
  <animateMotion begin="-2.4975398103272033s" dur="13s" repeatCount="indefinite">
    <mpath xlink:href="#path26"></mpath>
  </animateMotion>
</circle><path id="path27" d="M 1514.6215740265732 1001.8283587889581
c 0 21.75283401708471 -5.322501940350513 6.248154451715821 -11.570656392066335 6.248154451715821
S 1491.4802612424403 1023.5811928060428 1491.4802612424403 1001.8283587889581
s 5.322501940350513 -6.248154451715821 11.570656392066335 -6.248154451715821
S 1514.6215740265732 980.0755247718733 1514.6215740265732 1001.8283587889581
z" fill="none" stroke="none"></path>
<circle cx="0" cy="0" r="6.013629854190173" fill="#ff708e">
  <animateMotion begin="-11.020690437660633s" dur="13s" repeatCount="indefinite">
    <mpath xlink:href="#path27"></mpath>
  </animateMotion>
</circle><path id="path28" d="M 381.1825308121282 631.4815281313023
c 0 31.471069976858452 -7.700368185827068 9.039562652927428 -16.739930838754496 9.039562652927428
S 347.7026691346192 662.9525981081607 347.7026691346192 631.4815281313023
s 7.700368185827068 -9.039562652927428 16.739930838754496 -9.039562652927428
S 381.1825308121282 600.0104581544439 381.1825308121282 631.4815281313023
z" fill="none" stroke="none"></path>
<circle cx="0" cy="0" r="7.280539281864916" fill="#51cacc">
  <animateMotion begin="-5.259893089757614s" dur="13s" repeatCount="indefinite">
    <mpath xlink:href="#path28"></mpath>
  </animateMotion>
</circle><path id="path29" d="M 971.4835892397977 665.6545641250716
c 0 25.547604378327854 -6.2510095819312825 7.338141683136724 -13.589151265068008 7.338141683136724
S 944.3052867096616 691.2021685033994 944.3052867096616 665.6545641250716
s 6.2510095819312825 -7.338141683136724 13.589151265068008 -7.338141683136724
S 971.4835892397977 640.1069597467438 971.4835892397977 665.6545641250716
z" fill="none" stroke="none"></path>
<circle cx="0" cy="0" r="5.717264401042543" fill="#e0ff77">
  <animateMotion begin="-5.258102633048784s" dur="13s" repeatCount="indefinite">
    <mpath xlink:href="#path29"></mpath>
  </animateMotion>
</circle><path id="path30" d="M 113.28098551286601 587.3464677606959
c 0 26.810444384477307 -6.5600023493933834 7.7008723232009295 -14.260874672594312 7.7008723232009295
S 84.75923616767739 614.1569121451732 84.75923616767739 587.3464677606959
s 6.5600023493933834 -7.7008723232009295 14.260874672594312 -7.7008723232009295
S 113.28098551286601 560.5360233762185 113.28098551286601 587.3464677606959
z" fill="none" stroke="none"></path>
<circle cx="0" cy="0" r="7.022167870814594" fill="#e0ff77">
  <animateMotion begin="-9.671197047017584s" dur="13s" repeatCount="indefinite">
    <mpath xlink:href="#path30"></mpath>
  </animateMotion>
</circle><path id="path31" d="M 1009.1267989199824 667.349708961686
c 0 22.321298303735784 -5.461594265807691 6.411436746817725 -11.873031012625416 6.411436746817725
S 985.3807368947315 689.6710072654218 985.3807368947315 667.349708961686
s 5.461594265807691 -6.411436746817725 11.873031012625416 -6.411436746817725
S 1009.1267989199824 645.0284106579502 1009.1267989199824 667.349708961686
z" fill="none" stroke="none"></path>
<circle cx="0" cy="0" r="7.816002669656461" fill="#51cacc">
  <animateMotion begin="-6.125349407107112s" dur="13s" repeatCount="indefinite">
    <mpath xlink:href="#path31"></mpath>
  </animateMotion>
</circle><path id="path32" d="M 1050.6909327252017 884.2347108684489
c 0 22.319058132746477 -5.461046138863499 6.410793293448456 -11.871839432311955 6.410793293448456
S 1026.947253860578 906.5537690011954 1026.947253860578 884.2347108684489
s 5.461046138863499 -6.410793293448456 11.871839432311955 -6.410793293448456
S 1050.6909327252017 861.9156527357025 1050.6909327252017 884.2347108684489
z" fill="none" stroke="none"></path>
<circle cx="0" cy="0" r="8.103064107479165" fill="#ff708e">
  <animateMotion begin="-5.693502312597491s" dur="13s" repeatCount="indefinite">
    <mpath xlink:href="#path32"></mpath>
  </animateMotion>
</circle><path id="path33" d="M 267.24674455297827 598.7351957058034
c 0 29.84433385584231 -7.302337007280564 8.572308660720664 -15.874645668001229 8.572308660720664
S 235.49745321697583 628.5795295616458 235.49745321697583 598.7351957058034
s 7.302337007280564 -8.572308660720664 15.874645668001229 -8.572308660720664
S 267.24674455297827 568.8908618499611 267.24674455297827 598.7351957058034
z" fill="none" stroke="none"></path>
<circle cx="0" cy="0" r="5.207569360743413" fill="#51cacc">
  <animateMotion begin="-3.389169907852372s" dur="13s" repeatCount="indefinite">
    <mpath xlink:href="#path33"></mpath>
  </animateMotion>
</circle><path id="path34" d="M 942.7169617842669 134.14647975130262
c 0 33.911697925729825 -8.297543109487084 9.740594085050056 -18.03813719453714 9.740594085050056
S 906.6406873951926 168.05817767703246 906.6406873951926 134.14647975130262
s 8.297543109487084 -9.740594085050056 18.03813719453714 -9.740594085050056
S 942.7169617842669 100.2347818255728 942.7169617842669 134.14647975130262
z" fill="none" stroke="none"></path>
<circle cx="0" cy="0" r="7.1933722297973" fill="#e0ff77">
  <animateMotion begin="-7.332094604928392s" dur="13s" repeatCount="indefinite">
    <mpath xlink:href="#path34"></mpath>
  </animateMotion>
</circle><path id="path35" d="M 204.27628589411447 939.424386068465
c 0 23.25694218534047 -5.690528407051391 6.6801855213211985 -12.37071392837259 6.6801855213211985
S 179.53485803736928 962.6813282538054 179.53485803736928 939.424386068465
s 5.690528407051391 -6.6801855213211985 12.37071392837259 -6.6801855213211985
S 204.27628589411447 916.1674438831245 204.27628589411447 939.424386068465
z" fill="none" stroke="none"></path>
<circle cx="0" cy="0" r="4.7605896144400335" fill="#de9dd6">
  <animateMotion begin="-5.520665841004887s" dur="13s" repeatCount="indefinite">
    <mpath xlink:href="#path35"></mpath>
  </animateMotion>
</circle><path id="path36" d="M 302.3245465350357 1015.9718515986943
c 0 31.03024800591302 -7.5925074908085035 8.912943576166507 -16.50545106697501 8.912943576166507
S 269.3136444010857 1047.0020996046073 269.3136444010857 1015.9718515986943
s 7.5925074908085035 -8.912943576166507 16.50545106697501 -8.912943576166507
S 302.3245465350357 984.9416035927813 302.3245465350357 1015.9718515986943
z" fill="none" stroke="none"></path>
<circle cx="0" cy="0" r="8.284626741852652" fill="#9df871">
  <animateMotion begin="-0.2918865308614924s" dur="13s" repeatCount="indefinite">
    <mpath xlink:href="#path36"></mpath>
  </animateMotion>
</circle><path id="path37" d="M 1565.7328804107046 803.0775306326433
c 0 35.79211487074503 -8.757645127948251 10.280713845852297 -19.03835897380055 10.280713845852297
S 1527.6561624631036 838.8696455033884 1527.6561624631036 803.0775306326433
s 8.757645127948251 -10.280713845852297 19.03835897380055 -10.280713845852297
S 1565.7328804107046 767.2854157618982 1565.7328804107046 803.0775306326433
z" fill="none" stroke="none"></path>
<circle cx="0" cy="0" r="8.072431745949217" fill="#ff708e">
  <animateMotion begin="-1.485858980633998s" dur="13s" repeatCount="indefinite">
    <mpath xlink:href="#path37"></mpath>
  </animateMotion>
</circle><path id="path38" d="M 1918.962817010978 999.19494560585
c 0 33.90428470829072 -8.295729237134962 9.738464756636695 -18.034193993771655 9.738464756636695
S 1882.8944290234347 1033.0992303141406 1882.8944290234347 999.19494560585
s 8.295729237134962 -9.738464756636695 18.034193993771655 -9.738464756636695
S 1918.962817010978 965.2906608975593 1918.962817010978 999.19494560585
z" fill="none" stroke="none"></path>
<circle cx="0" cy="0" r="8.284212564357455" fill="#e0ff77">
  <animateMotion begin="-9.820676282970808s" dur="13s" repeatCount="indefinite">
    <mpath xlink:href="#path38"></mpath>
  </animateMotion>
</circle><path id="path39" d="M 198.76104084838786 972.7592191626775
c 0 19.79104337198768 -4.8424893356991126 5.6846613940815685 -10.527150729780681 5.6846613940815685
S 177.7067393888265 992.5502625346652 177.7067393888265 972.7592191626775
s 4.8424893356991126 -5.6846613940815685 10.527150729780681 -5.6846613940815685
S 198.76104084838786 952.9681757906898 198.76104084838786 972.7592191626775
z" fill="none" stroke="none"></path>
<circle cx="0" cy="0" r="4.398267377392545" fill="#de9dd6">
  <animateMotion begin="-6.756853013704968s" dur="13s" repeatCount="indefinite">
    <mpath xlink:href="#path39"></mpath>
  </animateMotion>
</circle><path id="path40" d="M 1510.242764114777 810.0204990176804
c 0 26.594122197711137 -6.507072452631448 7.638737227002135 -14.145809679633583 7.638737227002135
S 1481.9511447555096 836.6146212153916 1481.9511447555096 810.0204990176804
s 6.507072452631448 -7.638737227002135 14.145809679633583 -7.638737227002135
S 1510.242764114777 783.4263768199693 1510.242764114777 810.0204990176804
z" fill="none" stroke="none"></path>
<circle cx="0" cy="0" r="5.471941395255612" fill="#ff708e">
  <animateMotion begin="-6.573428132068237s" dur="13s" repeatCount="indefinite">
    <mpath xlink:href="#path40"></mpath>
  </animateMotion>
</circle><path id="path41" d="M 1166.4325560927805 900.9556596383551
c 0 26.606027313116005 -6.509985406400723 7.642156781426937 -14.15214218782766 7.642156781426937
S 1138.1282717171252 927.5616869514711 1138.1282717171252 900.9556596383551
s 6.509985406400723 -7.642156781426937 14.15214218782766 -7.642156781426937
S 1166.4325560927805 874.3496323252391 1166.4325560927805 900.9556596383551
z" fill="none" stroke="none"></path>
<circle cx="0" cy="0" r="4.8377061582051155" fill="#51cacc">
  <animateMotion begin="-1.878911544274772s" dur="13s" repeatCount="indefinite">
    <mpath xlink:href="#path41"></mpath>
  </animateMotion>
</circle><path id="path42" d="M 1283.3660317321364 421.33460113604434
c 0 19.79598050020561 -4.843697356433286 5.686079505378206 -10.529776861811493 5.686079505378206
S 1262.3064780085133 441.13058163624993 1262.3064780085133 421.33460113604434
s 4.843697356433286 -5.686079505378206 10.529776861811493 -5.686079505378206
S 1283.3660317321364 401.53862063583875 1283.3660317321364 421.33460113604434
z" fill="none" stroke="none"></path>
<circle cx="0" cy="0" r="4.39998782633276" fill="#de9dd6">
  <animateMotion begin="-9.69539629524481s" dur="13s" repeatCount="indefinite">
    <mpath xlink:href="#path42"></mpath>
  </animateMotion>
</circle></g>
</svg>